<?xml version="1.0" encoding="utf-8"?>
<!-- Generator: Adobe Illustrator 18.0.0, SVG Export Plug-In . SVG Version: 6.00 Build 0)  -->
<!DOCTYPE svg PUBLIC "-//W3C//DTD SVG 1.1//EN" "http://www.w3.org/Graphics/SVG/1.1/DTD/svg11.dtd">
<svg version="1.1" id="Layer_1" xmlns="http://www.w3.org/2000/svg" xmlns:xlink="http://www.w3.org/1999/xlink" x="0px" y="0px"
	 viewBox="0 0 260.8 246" enable-background="new 0 0 260.8 246" xml:space="preserve">
<path fill="#B3368B" d="M188,246H12c-6.6,0-12-5.4-12-12V12C0,5.4,5.4,0,12,0h176c6.6,0,12,5.4,12,12v222
	C200,240.6,194.6,246,188,246z"/>
<g opacity="0.7">
	<path fill="#FFFFFF" d="M172.7,208.9H30.4c-2.3,0-4.2,1.9-4.2,4.2c0,2.3,1.9,4.2,4.2,4.2h142.3c2.3,0,4.2-1.9,4.2-4.2
		C176.9,210.7,175,208.9,172.7,208.9z"/>
	<path fill="#FFFFFF" d="M172.7,185.3H30.4c-2.3,0-4.2,1.9-4.2,4.2c0,2.3,1.9,4.1,4.2,4.1h142.3c2.3,0,4.2-1.9,4.2-4.1
		C176.9,187.2,175,185.3,172.7,185.3z"/>
	<path fill="#FFFFFF" d="M172.7,138.2H30.4c-2.3,0-4.2,1.9-4.2,4.2c0,2.3,1.9,4.2,4.2,4.2h142.3c2.3,0,4.2-1.9,4.2-4.2
		C176.9,140.1,175,138.2,172.7,138.2z"/>
	<path fill="#FFFFFF" d="M172.7,161.8H30.4c-2.3,0-4.2,1.9-4.2,4.2c0,2.3,1.9,4.2,4.2,4.2h142.3c2.3,0,4.2-1.9,4.2-4.2
		C176.9,163.6,175,161.8,172.7,161.8z"/>
	<path fill="#FFFFFF" d="M172.7,114.7H30.4c-2.3,0-4.2,1.9-4.2,4.1c0,2.3,1.9,4.2,4.2,4.2h142.3c2.3,0,4.2-1.9,4.2-4.2
		C176.9,116.5,175,114.7,172.7,114.7z"/>
</g>
<text transform="matrix(1 0 0 1 35.9999 78.7356)"><tspan x="0" y="0" fill="#FFFFFF" font-family="'ArialRoundedMTBold'" font-size="63" letter-spacing="-3">T</tspan><tspan x="35.4" y="0" fill="#FFFFFF" font-family="'ArialRoundedMTBold'" font-size="63">AX</tspan></text>
<g>
	<circle fill="#FFFFFF" cx="189.8" cy="168.7" r="71"/>
	<path fill="#B3368B" d="M233.6,124.9c-12.1-12.1-28-18.2-43.8-18.2s-31.7,6.1-43.8,18.2c-24.2,24.2-24.2,63.5,0,87.7
		c12.1,12.1,28,18.2,43.8,18.2s31.7-6.1,43.8-18.2C257.9,188.3,257.9,149.1,233.6,124.9z M226.8,205.7c-9.9,9.9-23,15.3-37,15.3
		c-14,0-27.1-5.4-37-15.3c-20.4-20.4-20.4-53.6,0-74c9.9-9.9,23-15.3,37-15.3c14,0,27.1,5.4,37,15.3
		C247.2,152.1,247.2,185.3,226.8,205.7z"/>
	<polygon fill="#B3368B" points="180.9,169.6 168.1,155.7 154,169.8 154,169.8 180.6,196.4 225.6,151.4 215.3,141 	"/>
</g>
</svg>
